<?xml version="1.0" encoding="utf-8"?>
<!-- Generator: Adobe Illustrator 22.1.0, SVG Export Plug-In . SVG Version: 6.00 Build 0)  -->
<svg version="1.1" id="Layer_2_1_" xmlns="http://www.w3.org/2000/svg" xmlns:xlink="http://www.w3.org/1999/xlink" x="0px" y="0px"
	 viewBox="0 0 280 280" style="enable-background:new 0 0 280 280;" xml:space="preserve">
<style type="text/css">
	.st0{fill:#194168;}
	.st1{fill:#D2ECFF;}
	.st2{fill:#E86F2D;}
	.st3{fill:#F9D750;}
	.st4{fill:#3582EB;}
	.st5{fill:#5BA1F4;}
	.st6{fill:#3F8E68;}
</style>
<path class="st0" d="M140,279.5L140,279.5c-3.6,0-6.5-2.9-6.5-6.5v-91.2c0-3.6,2.9-6.5,6.5-6.5l0,0c3.6,0,6.5,2.9,6.5,6.5V273
	C146.5,276.6,143.6,279.5,140,279.5z"/>
<path class="st0" d="M195.4,274.1L195.4,274.1c-3.3,1.4-7.1-0.2-8.5-3.5L152,186.3c-1.4-3.3,0.2-7.1,3.5-8.5h0
	c3.3-1.4,7.1,0.2,8.5,3.5l34.9,84.3C200.3,268.9,198.7,272.7,195.4,274.1z"/>
<path class="st0" d="M84.6,274.1L84.6,274.1c3.3,1.4,7.1-0.2,8.5-3.5l34.9-84.3c1.4-3.3-0.2-7.1-3.5-8.5h0c-3.3-1.4-7.1,0.2-8.5,3.5
	l-34.9,84.3C79.7,268.9,81.3,272.7,84.6,274.1z"/>
<path class="st1" d="M269.6,192H10.4c-3.5,0-6.4-2.9-6.4-6.4V27.4c0-3.5,2.9-6.4,6.4-6.4h259.2c3.5,0,6.4,2.9,6.4,6.4v158.1
	C276,189.1,273.1,192,269.6,192z"/>
<path class="st0" d="M269.6,196.5H10.4c-5.7,0-10.4-5.3-10.4-11.8V28.3c0-6.5,4.7-11.8,10.4-11.8h259.2c5.7,0,10.4,5.3,10.4,11.8
	v156.4C280,191.2,275.3,196.5,269.6,196.5z M10.4,25.6c-1.3,0-2.4,1.2-2.4,2.7v156.4c0,1.5,1.1,2.7,2.4,2.7h259.2
	c1.3,0,2.4-1.2,2.4-2.7V28.3c0-1.5-1.1-2.7-2.4-2.7H10.4z"/>
<polygon class="st0" points="274,29.9 274,23.9 6.2,23.9 6.2,26.9 4.1,26.9 4.1,189.4 8,189.4 8,191.4 272,191.4 272,184.6 
	10.5,184.6 10.5,29.9 "/>
<rect x="269.8" y="26.9" class="st0" width="6.1" height="162.5"/>
<circle class="st2" cx="60.9" cy="88.1" r="35.4"/>
<path class="st3" d="M25.5,88.1c0-19.5,15.8-35.4,35.4-35.4v35.4H25.5z"/>
<path class="st4" d="M60.9,88.1l21.6,28c8.3-6.5,13.7-16.6,13.7-28c0-19.5-15.8-35.4-35.4-35.4V88.1z"/>
<rect x="115.2" y="99.7" class="st5" width="26.5" height="57.5"/>
<rect x="151.5" y="129.7" class="st0" width="26.5" height="27.5"/>
<rect x="186.2" y="119.7" class="st6" width="26.5" height="37.5"/>
<rect x="221.8" y="109.7" class="st5" width="26.5" height="47.5"/>
<rect x="115.2" y="57.5" class="st5" width="133" height="4.5"/>
<rect x="115.2" y="67.5" class="st5" width="114.8" height="3.9"/>
<rect x="115.2" y="77.5" class="st5" width="97.4" height="3.5"/>
<circle class="st3" cx="232.2" cy="21.8" r="21.8"/>
<path class="st0" d="M228.2,30.7l-8.1-8.1c-0.5-0.5-0.5-1.3,0-1.8l1.8-1.8c0.5-0.5,1.3-0.5,1.8,0l5.5,5.5l11.7-11.7
	c0.5-0.5,1.3-0.5,1.8,0l1.8,1.8c0.5,0.5,0.5,1.3,0,1.8L230,30.7C229.5,31.2,228.7,31.2,228.2,30.7L228.2,30.7z"/>
</svg>
